PathFileType	4	(X/Y/Z)	/Users/itak/Documents/Research/Walk-IL/dataset/trc/00358_00011.trc
DataRate	CameraRate	NumFrames	NumMarkers	Units	OrigDataRate	OrigDataStartFrame	OrigNumFrames
100.000000	100.000000	4	53	mm	100.000000	512	586
Frame#	Time	RPSI			LPSI			L3			STRN			T10			C7			CLAV			RBAK			LBAK			LSHO			LUPA			LAEL			LAOL			LWTS			LWPS			LFRA			LIFD			LHPS			LHTS			RSHO			RUPA			RAEL			RAOL			RWTS			RWPS			RFRA			RIFD			RHTS			RHPS			RBHD			LFHD			RFHD			LBHD			LHIP			RHIP			RASI			LASI			LKNE			LTHI			LANK			LTIP			LTOE			LMT1			LMT5			LHEE			RKNE			RTHI			RANK			RTIP			RTOE			RMT1			RMT5			RHEE			
		X1	Y1	Z1	X2	Y2	Z2	X3	Y3	Z3	X4	Y4	Z4	X5	Y5	Z5	X6	Y6	Z6	X7	Y7	Z7	X8	Y8	Z8	X9	Y9	Z9	X10	Y10	Z10	X11	Y11	Z11	X12	Y12	Z12	X13	Y13	Z13	X14	Y14	Z14	X15	Y15	Z15	X16	Y16	Z16	X17	Y17	Z17	X18	Y18	Z18	X19	Y19	Z19	X20	Y20	Z20	X21	Y21	Z21	X22	Y22	Z22	X23	Y23	Z23	X24	Y24	Z24	X25	Y25	Z25	X26	Y26	Z26	X27	Y27	Z27	X28	Y28	Z28	X29	Y29	Z29	X30	Y30	Z30	X31	Y31	Z31	X32	Y32	Z32	X33	Y33	Z33	X34	Y34	Z34	X35	Y35	Z35	X36	Y36	Z36	X37	Y37	Z37	X38	Y38	Z38	X39	Y39	Z39	X40	Y40	Z40	X41	Y41	Z41	X42	Y42	Z42	X43	Y43	Z43	X44	Y44	Z44	X45	Y45	Z45	X46	Y46	Z46	X47	Y47	Z47	X48	Y48	Z48	X49	Y49	Z49	X50	Y50	Z50	X51	Y51	Z51	X52	Y52	Z52	X53	Y53	Z53	

513	5.12	464.0454406738281	975.6461181640625	-408.5922546386719	335.4350280761719	976.5406494140625	-406.7732543945312	405.1358642578125	1025.552612304688	-406.6925048828125	394.9783325195312	1223.871704101562	-619.9657592773438	395.81884765625	1143.8994140625	-383.73095703125	383.7311096191406	1393.892333984375	-407.7969360351562	392.4437255859375	1346.8876953125	-568.8218383789062	448.5008850097656	1252.516235351562	-368.09326171875	280.2133178710938	1357.4775390625	-402.9283142089844	227.5721588134766	1381.0302734375	-489.024169921875	156.3731231689453	1262.720825195312	-483.876953125	131.2836761474609	1064.620239257812	-530.0462646484375	184.6638793945312	1039.29638671875	-468.1571350097656	162.4024505615234	833.5667724609375	-655.3760375976562	104.0305099487305	823.073486328125	-619.3782348632812	115.8051223754883	964.4663696289062	-559.9998779296875	146.2122192382812	672.8048095703125	-676.7760620117188	103.8130264282227	753.199462890625	-624.53759765625	140.0057830810547	758.3287353515625	-676.4829711914062	548.5078735351562	1382.0712890625	-463.5873718261719	609.6708984375	1315.105102539062	-454.0117797851562	642.4322509765625	1047.639526367188	-471.0084838867188	553.8086547851562	1039.760864257812	-440.4990844726562	609.5827026367188	819.0322265625	-585.32763671875	676.1602783203125	809.2528076171875	-549.1873168945312	655.4774169921875	982.1290893554688	-497.161376953125	626.4512939453125	644.8953857421875	-586.9492797851562	626.4089965820312	715.8571166992188	-607.2362060546875	677.4677734375	724.2329711914062	-560.3256225585938	476.2979125976562	1599.893188476562	-442.0976257324219	350.8802185058594	1625.606811523438	-606.3978271484375	451.825927734375	1621.898559570312	-601.0623779296875	332.9496765136719	1598.696655273438	-422.4544982910156	230.0251007080078	918.6419067382812	-490.6066284179688	570.7760009765625	922.3737182617188	-491.2425537109375	525.842529296875	948.2306518554688	-593.4653930664062	285.5929260253906	945.509033203125	-612.6338500976562	222.1396179199219	462.8947143554688	-505.800537109375	217.0615234375	602.81787109375	-517.3920288085938	219.3381652832031	42.89273452758789	-436.1537780761719	205.2032318115234	250.5182495117188	-469.5043640136719	289.0277404785156	39.53390121459961	-638.2853393554688	325.1549377441406	29.32217979431152	-567.5753173828125	211.8337707519531	38.06074905395508	-561.75537109375	284.636962890625	43.47739410400391	-399.1133728027344	563.6848754882812	460.8281555175781	-489.8829040527344	578.3568115234375	717.5068359375	-559.5553588867188	561.5582885742188	47.06099319458008	-417.4970092773438	562.4822387695312	344.0599975585938	-489.4154052734375	511.3245849609375	36.40902709960938	-613.3703002929688	469.6461486816406	37.25564575195312	-556.0488891601562	580.6777954101562	31.33699226379395	-517.0720825195312	511.7521362304688	49.97028732299805	-370.1585998535156	
514	5.13	463.3553771972656	975.4857177734375	-409.7080383300781	334.8407287597656	976.52294921875	-407.7886352539062	404.5242004394531	1025.3974609375	-407.7975769042969	394.359130859375	1223.935668945312	-620.7547607421875	395.3887023925781	1143.606079101562	-384.395263671875	383.3582458496094	1393.6181640625	-408.2457580566406	391.8919982910156	1346.900146484375	-569.4484252929688	448.3092956542969	1252.140258789062	-369.2468872070312	279.8989868164062	1357.140380859375	-403.2735290527344	227.1011505126953	1380.890258789062	-489.2157897949219	155.9899291992188	1262.492919921875	-484.3126220703125	130.9231719970703	1064.652954101562	-531.6802368164062	184.7011413574219	1038.88232421875	-470.3352966308594	161.6186218261719	834.94677734375	-659.5164794921875	103.6282501220703	823.9786987304688	-623.29248046875	115.5196151733398	964.7120971679688	-562.4515380859375	145.8408966064453	674.4963989257812	-682.6697998046875	103.6675262451172	754.1420288085938	-629.2103881835938	139.4065704345703	759.9866333007812	-681.369140625	548.0823974609375	1381.994018554688	-464.3786926269531	609.3639526367188	1315.036376953125	-455.0006103515625	641.4652099609375	1047.426513671875	-471.3010864257812	552.6006469726562	1039.91064453125	-441.3800354003906	610.9329223632812	817.0546875	-582.426025390625	677.0677490234375	808.436279296875	-545.201904296875	654.9415283203125	981.9384765625	-496.6495971679688	628.5781860351562	642.7186889648438	-579.3583984375	628.5264282226562	713.3798217773438	-601.5247192382812	678.9328002929688	723.1508178710938	-554.2477416992188	475.9010314941406	1599.84716796875	-442.7969970703125	350.48681640625	1625.208374023438	-607.1731567382812	451.4395141601562	1621.406494140625	-601.8748168945312	332.622802734375	1598.956909179688	-423.1313781738281	229.4664611816406	918.6718139648438	-491.7188720703125	569.988525390625	922.1847534179688	-492.3022155761719	525.4282836914062	948.0643920898438	-594.4706420898438	285.1893310546875	945.3877563476562	-613.6443481445312	221.5899353027344	462.7348327636719	-506.1485900878906	216.303955078125	602.8161010742188	-517.6952514648438	219.3031005859375	42.83796310424805	-436.1307678222656	204.9440460205078	250.4821014404297	-469.7091369628906	289.0178833007812	39.57902908325195	-638.2276611328125	325.1472473144531	29.33441734313965	-567.5614013671875	211.8191680908203	38.0466194152832	-561.733642578125	284.5969848632812	43.46489715576172	-399.0435180664062	563.6275634765625	460.82080078125	-490.0318908691406	577.6525268554688	717.319091796875	-560.4053955078125	561.5528564453125	47.06424713134766	-417.5073547363281	562.4573974609375	344.0974426269531	-489.5164794921875	511.3438415527344	36.39266204833984	-613.3984985351562	469.6783752441406	37.29205703735352	-556.0963745117188	580.7108764648438	31.30520057678223	-517.0668334960938	511.7075500488281	49.94267654418945	-370.1307678222656	
515	5.14	462.7052307128906	975.3346557617188	-410.7887268066406	334.2409973144531	976.4857177734375	-408.7690124511719	403.9497375488281	1025.187255859375	-408.8458557128906	393.8447875976562	1223.93408203125	-621.525634765625	394.9848022460938	1143.270629882812	-385.0550537109375	382.9692993164062	1393.332885742188	-408.7029724121094	391.403076171875	1346.856689453125	-570.0750122070312	448.09326171875	1251.734619140625	-370.3057861328125	279.5954895019531	1356.76708984375	-403.6487426757812	226.6469116210938	1380.669921875	-489.4831237792969	155.6140289306641	1262.177001953125	-484.7691345214844	130.5877838134766	1064.53271484375	-533.10400390625	184.7573852539062	1038.400634765625	-472.2760620117188	160.9939880371094	836.29443359375	-663.4261474609375	103.3708267211914	824.7426147460938	-626.9867553710938	115.3309783935547	964.7807006835938	-564.623291015625	145.7920227050781	676.25048828125	-688.6396484375	103.7974853515625	754.9569091796875	-633.7771606445312	139.0103302001953	761.6779174804688	-686.1508178710938	547.6807250976562	1381.870971679688	-465.109130859375	609.0648193359375	1314.918212890625	-455.9032592773438	640.646728515625	1047.158935546875	-471.5702514648438	551.54443359375	1039.944458007812	-442.1991882324219	612.3043823242188	815.3280639648438	-579.790283203125	677.973876953125	807.749755859375	-541.547119140625	654.5546875	981.7288818359375	-496.1692810058594	630.6375732421875	640.9268188476562	-572.368408203125	630.6505126953125	711.3491821289062	-596.3031005859375	680.3211059570312	722.26416015625	-548.6488647460938	475.5136413574219	1599.778686523438	-443.4749755859375	350.0682373046875	1624.784423828125	-607.9014892578125	451.0361633300781	1620.912963867188	-602.6658325195312	332.3289489746094	1599.16748046875	-423.777099609375	228.9314880371094	918.6651000976562	-492.7609252929688	569.2221069335938	921.9327392578125	-493.3110961914062	525.0423583984375	947.863037109375	-595.4332275390625	284.8303833007812	945.2168579101562	-614.60107421875	221.2896575927734	462.5878601074219	-506.4083251953125	215.7931518554688	602.7322387695312	-518.0253295898438	219.3115539550781	42.79124450683594	-436.1031188964844	204.7762603759766	250.4267578125	-469.8390197753906	289.0240783691406	39.62067794799805	-638.1736450195312	325.1658630371094	29.32453155517578	-567.5469970703125	211.8312377929688	38.05316925048828	-561.7117309570312	284.6090087890625	43.41606521606445	-398.9537963867188	563.6382446289062	460.793701171875	-490.1524963378906	576.96875	717.0679931640625	-561.2057495117188	561.58251953125	47.07374572753906	-417.5133056640625	562.4638061523438	344.1150512695312	-489.6141357421875	511.3598327636719	36.38233184814453	-613.4066162109375	469.7145080566406	37.32749938964844	-556.1162719726562	580.7648315429688	31.25290489196777	-517.0507202148438	511.7091674804688	49.9204216003418	-370.1169128417969	
516	5.15	462.1283264160156	975.1986083984375	-411.8208618164062	333.6710510253906	976.4321899414062	-409.6948852539062	403.4403686523438	1024.929443359375	-409.8124389648438	393.4148559570312	1223.869140625	-622.2753295898438	394.6097717285156	1142.90087890625	-385.7408752441406	382.5722961425781	1393.048217773438	-409.1795043945312	390.96044921875	1346.760620117188	-570.7001342773438	447.8492126464844	1251.32763671875	-371.2481994628906	279.2958679199219	1356.37646484375	-404.0621948242188	226.2070770263672	1380.38134765625	-489.8287963867188	155.2548980712891	1261.786499023438	-485.2539367675781	130.2667694091797	1064.281616210938	-534.35009765625	184.8025207519531	1037.869506835938	-473.9964599609375	160.5614318847656	837.6138305664062	-667.107421875	103.2705764770508	825.3738403320312	-630.4703979492188	115.2429351806641	964.6856079101562	-566.547607421875	146.0475463867188	678.047119140625	-694.6094970703125	104.1800537109375	755.65771484375	-638.2196044921875	138.8180236816406	763.3809204101562	-690.7952880859375	547.2982788085938	1381.70751953125	-465.7900390625	608.7711791992188	1314.762451171875	-456.7276916503906	639.9752807617188	1046.848999023438	-471.783447265625	550.6339721679688	1039.87548828125	-442.9250183105469	613.6673583984375	813.8493041992188	-577.4279174804688	678.85986328125	807.1795654296875	-538.2378540039062	654.3031005859375	981.4962768554688	-495.6875915527344	632.6290893554688	639.5093383789062	-566.0778198242188	632.7357788085938	709.7262573242188	-591.6244506835938	681.629638671875	721.5543823242188	-543.5822143554688	475.1415710449219	1599.688110351562	-444.1393432617188	349.6319274902344	1624.358276367188	-608.5870361328125	450.6182861328125	1620.43408203125	-603.4298706054688	332.0638732910156	1599.316528320312	-424.4019775390625	228.4315338134766	918.6237182617188	-493.711181640625	568.504150390625	921.6196899414062	-494.2694396972656	524.6802368164062	947.6318969726562	-596.3585815429688	284.4993896484375	945.0076904296875	-615.4895629882812	221.2405700683594	462.4451904296875	-506.5982055664062	215.5406951904297	602.5606079101562	-518.3965454101562	219.3624725341797	42.7547607421875	-436.0732116699219	204.69873046875	250.3511199951172	-469.9071655273438	289.0469360351562	39.65787124633789	-638.1251831054688	325.2106628417969	29.29120635986328	-567.533203125	211.8699798583984	38.07989883422852	-561.6907348632812	284.67431640625	43.3331298828125	-398.853271484375	563.680419921875	460.7469482421875	-490.2645263671875	576.333251953125	716.7561645507812	-561.9558715820312	561.6365966796875	47.08354568481445	-417.5137634277344	562.48486328125	344.1141662597656	-489.7169494628906	511.3717956542969	36.37651443481445	-613.39892578125	469.7511901855469	37.35918045043945	-556.1142578125	580.8321533203125	31.18828773498535	-517.0278930664062	511.7438049316406	49.89997482299805	-370.1146240234375	
